<svg width="53.188mm" height="10.061mm" version="1.1" viewBox="0 0 53.188 10.061" xmlns="http://www.w3.org/2000/svg"><g transform="translate(-.66368 -.67498)"><g transform="translate(-31.026 -69.982)" fill="#000080" style="font-variant-caps:normal;font-variant-east-asian:normal;font-variant-ligatures:normal;font-variant-numeric:normal;shape-inside:url(#rect18);white-space:pre" aria-label="REPL"><path d="m35.832 72.311-2.4887 0.01654v2.5301h2.4805zm-0.25631 4.2168-0.57878-0.0083 0.0248 3.2659q0 0.85989-0.82682 0.85989h-1.6784q-0.82682 0-0.82682-0.81855v-8.3013q0-0.82682 0.82682-0.82682l5.796-0.0083q0.81028 0 0.81028 0.84336l-0.01654 4.1589q0 0.85163-0.82682 0.85163l-0.76894-0.0083 1.4965 2.9021q0.33073 0.76894-0.40514 1.1493-0.7276 0.38034-1.1162-0.34726z" style="font-variant-caps:normal;font-variant-east-asian:normal;font-variant-ligatures:normal;font-variant-numeric:normal"/><path d="m47.367 74.8q0.82682 0 0.82682 0.85163 0 0.82682-0.82682 0.82682h-4.9361v2.5383l4.9444 0.01654q0.84336-0.01654 0.83509 0.79375 0.01654 0.81855-0.81028 0.81855h-5.796q-0.82682 0-0.82682-0.82682l0.0083-4.1754q-0.0083-0.82682 0.81855-0.83509l0.0083-3.2825q0-0.82682 0.82682-0.82682l4.9527-0.0083q0.82682 0 0.82682 0.86816 0 0.78548-0.82682 0.78548h-2.4722v2.4474z" style="font-variant-caps:normal;font-variant-east-asian:normal;font-variant-ligatures:normal;font-variant-numeric:normal"/><path d="m54.014 72.319-2.497 0.0083v2.5301h2.4805zm3.2659 3.3734q0 0.85163-0.82682 0.85163l-3.2825-0.0248 0.02481 3.2659q0 0.85989-0.82682 0.85989h-1.6784q-0.82682 0-0.82682-0.81855v-8.3013q0-0.82682 0.82682-0.82682l5.796-0.0083q0.81028 0 0.81028 0.84336z" style="font-variant-caps:normal;font-variant-east-asian:normal;font-variant-ligatures:normal;font-variant-numeric:normal"/><path d="m62.258 78.942 2.4722 0.02481v-0.82682q0-0.77721 0.83509-0.78548 0.82682 0.01654 0.82682 0.80202v1.6784q0 0.81028-0.82682 0.81028h-5.8043q-0.81028 0-0.81028-0.79375l-0.0083-8.3674q0-0.82682 0.82682-0.82682h1.695q0.71933 0.0083 0.78548 0.83509z" style="font-variant-caps:normal;font-variant-east-asian:normal;font-variant-ligatures:normal;font-variant-numeric:normal"/></g><g fill="#666" stroke-width=".26458" style="font-variant-caps:normal;font-variant-east-asian:normal;font-variant-ligatures:normal;font-variant-numeric:normal" aria-label="AY"><path d="m36.86 10.638q-0.40514 0-0.40514-0.41341 0-0.14056 0.04961-0.23151l-0.0083-0.00827 1.695-7.0859 0.28112-1.1824 0.08268-0.339q0.1571-0.64492 0.73587-0.64492 0.06615 0 0.14056 0.008268v-0.008268h2.712v0.008268q0.07441-0.008268 0.14056-0.008268 0.57878 0 0.73587 0.64492l0.08268 0.339 2.034 8.2599q0.0248 0.099218 0.0248 0.27285 0 0.41341-0.41341 0.41341h-2.1663q-0.07441 0.0083-0.14056 0.0083-0.57878 0-0.73587-0.64492l-1.7446-7.1272h-0.0083l-1.6701 7.1107q-0.1571 0.64492-0.73587 0.64492zm3.9687-0.79375q-0.06615 0.81855-0.82682 0.82682-0.82682 0-0.82682-0.81028l-0.0083-1.6784q0-0.82682 0.82682-0.82682 0.76068 0.00827 0.82682 0.83509z"/><path d="m48.221 6.4131-2.3234-4.3987q-0.09922-0.23978-0.09922-0.43822 0-0.44648 0.50436-0.71107 0.24805-0.13229 0.46302-0.13229l1.3229-0.024805q0.39688 0 0.65319 0.47956l1.6702 3.3486 1.819-3.39q0.25632-0.47129 0.66146-0.47129 0.2067 0 0.45475 0.12402 0.50436 0.26458 0.50436 0.71107 0 0.19844-0.09922 0.43822l-2.2159 4.3573-0.0083 3.5471q-0.06615 0.81855-0.78548 0.82682h-1.695q-0.82682 0-0.82682-0.81855z"/></g></g></svg>
